<svg height="512" viewBox="0 0 128 128" width="512" xmlns="http://www.w3.org/2000/svg"><g><g><path d="m119.652 41.6v.02l-12.963-.072a48.375 48.375 0 1 1 -18.26-19.124l-4.453 4.452 6.533 6.533 21.089.14-.14-21.09-6.532-6.532-6.337 6.337a62.373 62.373 0 1 0 23.467 29.336z" fill="#0d70b2"/><g fill="#00ddc1"><path d="m83.867 50.75a1.749 1.749 0 0 0 -1.75 1.75v9.747h-11.761l5.069-8.88a1.749 1.749 0 1 0 -3.039-1.734l-6.563 11.5a1.749 1.749 0 0 0 1.52 2.617h14.774v9.747a1.75 1.75 0 0 0 3.5 0v-22.997a1.749 1.749 0 0 0 -1.75-1.75z"/><path d="m47.44 68.708 11.51-5.921a6.371 6.371 0 0 0 -2.915-12.037h-11.9a1.749 1.749 0 0 0 -1.75 1.75v5.508a1.75 1.75 0 0 0 3.5 0v-3.758h10.15a2.872 2.872 0 0 1 1.314 5.425l-11.51 5.925a6.344 6.344 0 0 0 -3.456 5.665v4.232a1.749 1.749 0 0 0 1.75 1.75h16.524a1.75 1.75 0 1 0 0-3.5h-14.774v-2.485a2.862 2.862 0 0 1 1.557-2.554z"/></g><g fill="#e1e4fb"><path d="m64 34.127a1.749 1.749 0 0 1 -1.75-1.75v-8.377a1.75 1.75 0 1 1 3.5 0v8.375a1.749 1.749 0 0 1 -1.75 1.752z"/><path d="m64 105.742a1.749 1.749 0 0 1 -1.75-1.75v-8.375a1.75 1.75 0 0 1 3.5 0v8.375a1.749 1.749 0 0 1 -1.75 1.75z"/><path d="m41.641 43.388a1.744 1.744 0 0 1 -1.238-.513l-5.922-5.922a1.75 1.75 0 0 1 2.475-2.475l5.922 5.922a1.751 1.751 0 0 1 -1.237 2.988z"/><path d="m92.281 94.028a1.746 1.746 0 0 1 -1.237-.512l-5.922-5.922a1.75 1.75 0 0 1 2.478-2.475l5.922 5.922a1.75 1.75 0 0 1 -1.238 2.987z"/><path d="m35.719 94.028a1.75 1.75 0 0 1 -1.238-2.987l5.919-5.922a1.75 1.75 0 1 1 2.475 2.475l-5.922 5.922a1.746 1.746 0 0 1 -1.234.512z"/><path d="m32.38 65.747h-8.375a1.75 1.75 0 1 1 0-3.5h8.375a1.75 1.75 0 1 1 0 3.5z"/><path d="m104 65.747h-8.38a1.75 1.75 0 0 1 0-3.5h8.38a1.75 1.75 0 0 1 0 3.5z"/></g></g><g><path d="m82.251 110.413a1.748 1.748 0 0 0 .663-.131 50.217 50.217 0 0 0 7.327-3.738 1.75 1.75 0 1 0 -1.842-2.977 46.574 46.574 0 0 1 -6.813 3.477 1.75 1.75 0 0 0 .665 3.369z"/><path d="m123.687 40.969a1.748 1.748 0 0 0 -1.631-1.118h-2.4a1.659 1.659 0 0 0 -.256.019l-12.7-.07h-.01a1.749 1.749 0 0 0 -1.546 2.567 46.385 46.385 0 0 1 -4.144 49.767 1.75 1.75 0 0 0 2.783 2.123 49.5 49.5 0 0 0 10.217-30.257 50.023 50.023 0 0 0 -4.494-20.682l10.137.056a.716.716 0 0 0 .27-.02h.932a60.486 60.486 0 1 1 -56.845-39.854 1.75 1.75 0 0 0 0-3.5 64.085 64.085 0 1 0 59.687 40.972z"/><path d="m79.1 5.4a60.13 60.13 0 0 1 18.519 8.317 1.75 1.75 0 0 0 2.212-.216l5.1-5.1 4.787 4.788.124 18.6-18.6-.123-4.787-4.788 3.215-3.215a1.749 1.749 0 0 0 -.348-2.744 49.986 49.986 0 1 0 -25.322 93.081 1.75 1.75 0 0 0 0-3.5 46.5 46.5 0 1 1 21.554-87.675l-2.815 2.815a1.75 1.75 0 0 0 0 2.474l6.532 6.533a1.749 1.749 0 0 0 1.226.513l21.09.14h.012a1.752 1.752 0 0 0 1.75-1.762l-.141-21.09a1.749 1.749 0 0 0 -.513-1.225l-6.532-6.533a1.8 1.8 0 0 0 -2.475 0l-5.331 5.332a63.554 63.554 0 0 0 -18.389-8.008 1.749 1.749 0 1 0 -.868 3.386z"/><path d="m60.657 77.244a1.75 1.75 0 1 0 0-3.5h-14.774v-2.482a2.862 2.862 0 0 1 1.557-2.554l11.51-5.921a6.371 6.371 0 0 0 -2.915-12.037h-11.9a1.749 1.749 0 0 0 -1.75 1.75v5.508a1.75 1.75 0 0 0 3.5 0v-3.758h10.15a2.872 2.872 0 0 1 1.314 5.425l-11.51 5.925a6.344 6.344 0 0 0 -3.456 5.665v4.232a1.749 1.749 0 0 0 1.75 1.75z"/><path d="m67.343 65.747h14.774v9.747a1.75 1.75 0 0 0 3.5 0v-22.994a1.75 1.75 0 0 0 -3.5 0v9.747h-11.761l5.069-8.88a1.749 1.749 0 1 0 -3.039-1.734l-6.563 11.5a1.749 1.749 0 0 0 1.52 2.617z"/><path d="m64 34.127a1.749 1.749 0 0 0 1.75-1.75v-8.377a1.75 1.75 0 1 0 -3.5 0v8.375a1.749 1.749 0 0 0 1.75 1.752z"/><path d="m64 105.742a1.749 1.749 0 0 0 1.75-1.75v-8.375a1.75 1.75 0 0 0 -3.5 0v8.375a1.749 1.749 0 0 0 1.75 1.75z"/><path d="m40.4 42.875a1.75 1.75 0 1 0 2.478-2.475l-5.922-5.922a1.75 1.75 0 0 0 -2.475 2.475z"/><path d="m93.519 93.516a1.751 1.751 0 0 0 0-2.475l-5.919-5.922a1.75 1.75 0 0 0 -2.475 2.475l5.922 5.922a1.752 1.752 0 0 0 2.475 0z"/><path d="m35.719 94.028a1.746 1.746 0 0 0 1.237-.512l5.922-5.922a1.75 1.75 0 1 0 -2.478-2.475l-5.922 5.922a1.75 1.75 0 0 0 1.238 2.987z"/><path d="m32.38 62.247h-8.375a1.75 1.75 0 1 0 0 3.5h8.375a1.75 1.75 0 1 0 0-3.5z"/><path d="m95.62 65.747h8.38a1.75 1.75 0 0 0 0-3.5h-8.38a1.75 1.75 0 0 0 0 3.5z"/></g></g></svg>