<svg height="512" viewBox="0 0 128 128" width="512" xmlns="http://www.w3.org/2000/svg"><g><g><path d="m64 25.5-33.527 11.684 33.527 11.684 33.526-11.684z" fill="#f1f1fb"/><path d="m64 102.5-33.527-11.684v-53.632l33.527 11.684z" fill="#d7d7fb"/><path d="m64 102.5 33.526-11.684v-53.632l-33.526 11.684z" fill="#a2a2d1"/><path d="m41.576 33.315 33.527 11.684 12.16-4.238-33.526-11.684z" fill="#ffdd46"/><path d="m87.263 58.929-6.08-2.929-6.08 7.167v-18.168l12.16-4.238z" fill="#ff9f04"/></g><g fill="#541a9d"><path d="m75.248 31.273.891.311a1.75 1.75 0 0 0 1.152-3.3l-.891-.31a1.75 1.75 0 0 0 -1.152 3.3z"/><path d="m98.1 35.532-14.309-4.988a1.75 1.75 0 1 0 -1.152 3.3l9.57 3.336-4.945 1.723-28.209-9.826 4.945-1.723 4.745 1.653a1.75 1.75 0 1 0 1.155-3.307l-5.321-1.854a1.738 1.738 0 0 0 -1.152 0l-33.527 11.686a1.749 1.749 0 0 0 -1.173 1.653v53.63a1.749 1.749 0 0 0 1.173 1.653l33.527 11.684a.223.223 0 0 0 .023 0 1.74 1.74 0 0 0 .553.094 1.76 1.76 0 0 0 .551-.093h.025l33.521-11.685a1.749 1.749 0 0 0 1.173-1.653v-53.63a1.749 1.749 0 0 0 -1.173-1.653zm-44.366-4.6 28.209 9.831-6.843 2.383-24.059-8.386a1.75 1.75 0 1 0 -1.152 3.3l19.896 6.94-5.785 2.015-28.209-9.83zm12.016 69.105v-15.912a1.75 1.75 0 0 0 -3.5 0v15.912l-30.026-10.465v-49.924l30.026 10.463v19.731a1.75 1.75 0 0 0 3.5 0v-19.731l7.6-2.649v15.7a1.75 1.75 0 0 0 3.088 1.138l5.2-6.135 4.862 2.34a1.751 1.751 0 0 0 2.51-1.576v-10.061a1.75 1.75 0 0 0 -3.5 0v7.276l-3.571-1.72a1.751 1.751 0 0 0 -2.094.444l-3 3.531v-12.157l18.922-6.594v49.924z"/><path d="m64 74.375a1.749 1.749 0 0 0 -1.75 1.75v1.625a1.75 1.75 0 0 0 3.5 0v-1.625a1.749 1.749 0 0 0 -1.75-1.75z"/></g></g></svg>