<svg id="Capa_1" enable-background="new 0 0 512 512" height="512" viewBox="0 0 512 512" width="512" xmlns="http://www.w3.org/2000/svg"><g><path d="m436.996 166h-101.078l-31.3 208.674 25.302 31.326h166.212l15.674-159.653c3.099-43.362-31.319-80.347-74.81-80.347z" fill="#dfe7f4"/><path d="m477.781 286 4.142-42.188c1.772-25.015-18.273-47.812-44.927-47.812h-134.996v90z" fill="#32393f"/><path d="m0 106h86.503v30h-86.503z" fill="#dfe7f4"/><path d="m30 166h47.494v30h-47.494z" fill="#dfe7f4"/><path d="m196 76h-117.92l-49.497 330h167.417 133.92l49.497-330z" fill="#ff641a"/><path d="m379.417 76h-183.417v330h133.92z" fill="#f03800"/><path d="m407 436c-24.814 0-45-20.186-45-45s20.186-45 45-45 45 20.186 45 45-20.186 45-45 45z" fill="#474f54"/><path d="m407 376c-8.276 0-15 6.724-15 15s6.724 15 15 15 15-6.724 15-15-6.724-15-15-15z" fill="#dfe7f4"/><path d="m136 436c-24.814 0-45-20.186-45-45s20.186-45 45-45 45 20.186 45 45-20.186 45-45 45z" fill="#474f54"/><circle cx="136" cy="391" fill="#edf5ff" r="15"/><path d="m196 166h-15v45h15 15v-45z" fill="#fb3"/><path d="m196 166h15v45h-15z" fill="#c7cfe1"/><path d="m196 196c-41.353 0-75 33.647-75 75v15h75 75v-15c0-41.353-33.647-75-75-75z" fill="#fb3"/><path d="m271 271c0-41.353-33.647-75-75-75v90h75z" fill="#f93"/></g></svg>