<?xml version="1.0" encoding="iso-8859-1"?>
<!-- Generator: Adobe Illustrator 19.0.0, SVG Export Plug-In . SVG Version: 6.00 Build 0)  -->
<svg version="1.1" id="Capa_1" xmlns="http://www.w3.org/2000/svg" xmlns:xlink="http://www.w3.org/1999/xlink" x="0px" y="0px"
	 viewBox="0 0 480 480" style="enable-background:new 0 0 480 480;" xml:space="preserve">
<g>
	<polygon style="fill:#CCCCCC;" points="239.999,56 415.999,160 415.999,368 239.999,472 63.999,368 63.999,160 	"/>
	<polygon style="fill:#999999;" points="415.999,160 239.999,264 63.999,160 239.999,56 	"/>
	<polygon style="fill:#808080;" points="239.999,264 239.999,472 415.999,368 415.999,160 	"/>
	<polygon style="fill:#F9CD74;" points="358.663,193.88 358.663,265.88 301.335,299.76 301.335,227.76 125.335,123.76 
		182.663,89.88 	"/>
	<polygon style="fill:#F9B659;" points="358.663,193.88 358.663,265.88 301.335,299.76 301.335,227.76 	"/>
	<path style="fill:#FF736B;" d="M327.999,96c0,72-88,128-88,128s-88-56-88-128c0-48.601,39.399-88,88-88S327.999,47.399,327.999,96z
		"/>
	<circle style="fill:#F2F2F2;" cx="239.999" cy="96" r="48"/>
</g>
<g>
	<g>
		<path style="fill:#294F61;" d="M239.999,272c-1.432,0.001-2.839-0.383-4.072-1.112l-148.92-88
			c-3.804-2.249-5.065-7.156-2.816-10.96c2.249-3.804,7.156-5.065,10.96-2.816l144.848,85.6l171.928-101.6
			c3.804-2.249,8.711-0.988,10.96,2.816c2.249,3.804,0.988,8.711-2.816,10.96l-176,104C242.837,271.617,241.431,272.001,239.999,272
			z"/>
		<path style="fill:#294F61;" d="M239.999,408c-4.418,0-8-3.582-8-8V264c0-4.418,3.582-8,8-8s8,3.582,8,8v136
			C247.999,404.418,244.417,408,239.999,408z"/>
		<path style="fill:#294F61;" d="M239.999,480c-4.418,0-8-3.582-8-8v-40c0-4.418,3.582-8,8-8s8,3.582,8,8v40
			C247.999,476.418,244.417,480,239.999,480z"/>
	</g>
	<g>
		<path style="fill:#999999;" d="M95.999,360c-4.418,0-8-3.582-8-8v-32c0-4.418,3.582-8,8-8s8,3.582,8,8v32
			C103.999,356.418,100.417,360,95.999,360z"/>
		<path style="fill:#999999;" d="M127.999,376c-4.418,0-8-3.582-8-8v-32c0-4.418,3.582-8,8-8s8,3.582,8,8v32
			C135.999,372.418,132.417,376,127.999,376z"/>
	</g>
	<g>
		<path style="fill:#294F61;" d="M239.999,232c-1.522,0.001-3.012-0.432-4.296-1.248c-3.704-2.384-91.704-59.232-91.704-134.752
			c0-53.019,42.981-96,96-96s96,42.981,96,96c0,75.52-87.96,132.368-91.704,134.752C243.01,231.568,241.52,232.001,239.999,232z
			 M239.999,16c-44.163,0.048-79.952,35.837-80,80c0,57.864,62.808,106.176,80,118.32c17.192-12.144,80-60.456,80-118.32
			C319.95,51.837,284.161,16.049,239.999,16z"/>
		<path style="fill:#294F61;" d="M239.999,152c-30.928-0.007-55.994-25.085-55.987-56.013S209.097,39.993,240.024,40
			c6.352,0.001,12.657,1.084,18.646,3.2c4.147,1.525,6.273,6.122,4.748,10.269c-1.499,4.078-5.98,6.214-10.092,4.811
			c-20.832-7.353-43.68,3.574-51.033,24.406c-7.353,20.832,3.574,43.68,24.406,51.033s43.68-3.574,51.033-24.406
			c3.89-11.021,2.765-23.191-3.078-33.313c-2.048-3.915-0.534-8.749,3.381-10.797c3.684-1.927,8.229-0.711,10.459,2.797
			c15.464,26.784,6.287,61.033-20.497,76.497C259.484,149.412,249.828,152,239.999,152z"/>
		<path style="fill:#294F61;" d="M239.999,480c-1.432,0.001-2.839-0.383-4.072-1.112l-176-104c-2.435-1.44-3.929-4.059-3.928-6.888
			V160c-0.001-2.829,1.493-5.448,3.928-6.888l88.752-52.448c3.843-2.181,8.725-0.834,10.906,3.009
			c2.131,3.755,0.898,8.524-2.786,10.775l-84.8,50.112v198.88l168,99.272l168-99.272V164.56l-84.8-50.112
			c-3.806-2.249-5.069-7.158-2.82-10.964c2.249-3.806,7.158-5.069,10.964-2.82l88.752,52.448c2.426,1.446,3.91,4.064,3.904,6.888
			v208c0.001,2.829-1.493,5.448-3.928,6.888l-176,104C242.837,479.617,241.431,480.001,239.999,480z"/>
		<path style="fill:#294F61;" d="M301.335,307.768c-4.418,0-8-3.582-8-8V232.32l-33.336-19.688
			c-3.806-2.249-5.069-7.158-2.82-10.964c2.249-3.806,7.158-5.069,10.964-2.82l37.256,22.016c2.438,1.441,3.931,4.064,3.928,6.896
			v57.984l41.328-24.424v-62.88l-50.088-29.6c-3.804-2.249-5.065-7.156-2.816-10.96c2.249-3.804,7.156-5.065,10.96-2.816
			l54.016,31.912c2.435,1.44,3.929,4.059,3.928,6.888v72c0.003,2.832-1.49,5.455-3.928,6.896l-57.328,33.88
			C304.168,307.37,302.765,307.76,301.335,307.768z"/>
	</g>
</g>
<g>
</g>
<g>
</g>
<g>
</g>
<g>
</g>
<g>
</g>
<g>
</g>
<g>
</g>
<g>
</g>
<g>
</g>
<g>
</g>
<g>
</g>
<g>
</g>
<g>
</g>
<g>
</g>
<g>
</g>
</svg>
