<svg height="512" viewBox="0 0 128 128" width="512" xmlns="http://www.w3.org/2000/svg"><g><path d="m99.733 25.567-56.397 12.163 9.906 45.931.029.019a19.181 19.181 0 0 1 12.666 8.172l.028.018 45.935-9.906z" fill="#f2da30"/><circle cx="50.068" cy="102.545" fill="#6d7a84" r="19.145"/><circle cx="50.068" cy="102.545" fill="#dfeef4" r="9.276"/><path d="m78.4 30.168 6.081 28.199-8.043-5.45-5.687 8.411-6.082-28.199z" fill="#fc883a"/><g fill="#f45858"><path d="m68.783 98.509 52.91-11.409-1.493-6.927-54.235 11.697-.028-.018a19.081 19.081 0 0 1 2.846 6.657z"/><path d="m53.271 83.68-.029-.019-16.683-77.355h-30.252v7.084h24.533l15.192 70.441a19.057 19.057 0 0 1 7.239-.151z"/></g><g><path d="m105.585 61 .948 4.394a1.75 1.75 0 0 0 3.421-.738l-.948-4.394a1.75 1.75 0 0 0 -3.421.738z"/><path d="m84.719 77.774-3.194.689a1.75 1.75 0 1 0 .738 3.421l3.195-.689a1.75 1.75 0 1 0 -.739-3.421z"/><path d="m75.436 79.776-8.855 1.91a1.75 1.75 0 1 0 .738 3.421l8.855-1.91a1.75 1.75 0 0 0 -.738-3.421z"/><path d="m47.744 91.767a11.026 11.026 0 1 0 13.1 8.454 11.037 11.037 0 0 0 -13.1-8.454zm3.911 18.133a7.526 7.526 0 1 1 5.769-8.944 7.536 7.536 0 0 1 -5.769 8.944z"/><path d="m123.4 86.729-1.493-6.924a1.75 1.75 0 0 0 -2.08-1.342l-6.593 1.422-1.549-7.179a1.749 1.749 0 1 0 -3.42.737l1.548 7.18-43.127 9.3a21 21 0 0 0 -11.969-7.723l-6.217-28.814 17.912-3.863 2.629 12.177a1.747 1.747 0 0 0 1.377 1.349 1.722 1.722 0 0 0 .333.032 1.751 1.751 0 0 0 1.45-.77l4.706-6.96 6.593 4.464a1.75 1.75 0 0 0 2.692-1.815l-2.626-12.177 17.912-3.863 2.284 10.587a1.75 1.75 0 1 0 3.421-.738l-5.74-26.609a1.751 1.751 0 0 0 -2.079-1.341l-35.064 7.56-19.622 4.232-6.408-29.713a1.751 1.751 0 0 0 -1.711-1.381h-30.252a1.749 1.749 0 0 0 -1.75 1.75v7.083a1.75 1.75 0 0 0 1.75 1.75h23.12l2.229 10.335a1.75 1.75 0 0 0 3.421-.738l-2.526-11.716a1.75 1.75 0 0 0 -1.711-1.381h-22.783v-3.583h27.089l6.479 30.043 9.4 43.592a20.76 20.76 0 0 0 -3.635.143l-10.7-49.6a1.75 1.75 0 0 0 -3.421.738l10.7 49.6a20.887 20.887 0 1 0 26.8 17.293l51.287-11.061a1.75 1.75 0 0 0 1.344-2.076zm-45.981-35.261a1.751 1.751 0 0 0 -2.431.469l-3.388 5.015-4.851-22.481 10.309-2.223 2.718 12.6 2.075 9.62zm23.321-12.929-17.912 3.861-2.349-10.89 17.912-3.863zm-37.412-3.33 2.349 10.891-17.912 3.865-2.349-10.893zm-9.593 84.34a17.4 17.4 0 1 1 13.337-20.671 17.417 17.417 0 0 1 -13.337 20.671zm16.3-23.1a20.739 20.739 0 0 0 -1.369-3.371l50.189-10.824.756 3.5z"/></g></g></svg>