<?xml version="1.0"?>
<svg xmlns="http://www.w3.org/2000/svg" viewBox="0 0 64 64" width="512" height="512"><g id="man-virus-mask-protect-covid19"><path d="M28,18a1,1,0,0,0-1,1v1a1,1,0,0,0,2,0V19A1,1,0,0,0,28,18Z"/><path d="M36,18a1,1,0,0,0-1,1v1a1,1,0,0,0,2,0V19A1,1,0,0,0,36,18Z"/><path d="M57.08,51.71A12.962,12.962,0,0,0,44.14,40H39a1,1,0,0,1-1-1V36.38A12.1,12.1,0,0,0,43.61,29H45a3.009,3.009,0,0,0,3-3V23a2.986,2.986,0,0,0-1-2.22V11a9.014,9.014,0,0,0-9-9H30a4.989,4.989,0,0,0-4.33,2.51A2.994,2.994,0,0,0,24,4H22a5,5,0,0,0-5,5V20.78A2.986,2.986,0,0,0,16,23v3a3.009,3.009,0,0,0,3,3h1.39A12.1,12.1,0,0,0,26,36.38V39a1,1,0,0,1-1,1H19.86A12.962,12.962,0,0,0,6.92,51.71L6,60.9a1.036,1.036,0,0,0,.26.77A1,1,0,0,0,7,62H57a1,1,0,0,0,.74-.33A1.036,1.036,0,0,0,58,60.9ZM42,26a9.98,9.98,0,0,1-1,4.33V26.28l1-1.67Zm4-3v3a1,1,0,0,1-1,1H43.95c.03-.33.05-.66.05-1V22h1A1,1,0,0,1,46,23ZM19,27a1,1,0,0,1-1-1V23a1,1,0,0,1,1-1h1v4c0,.34.02.67.05,1Zm1-10v3H19V9a3.009,3.009,0,0,1,3-3h2a1,1,0,0,1,1,1,1,1,0,0,0,2,0,3.009,3.009,0,0,1,3-3h8a7.008,7.008,0,0,1,7,7v9H44V17a5,5,0,0,0-5-5H25A5,5,0,0,0,20,17Zm3,13.33A9.98,9.98,0,0,1,22,26V24.61l1,1.67Zm-1-9.61V17a3.009,3.009,0,0,1,3-3H39a3.009,3.009,0,0,1,3,3v3.72l-2.33,3.89-6.08-3.8a3.034,3.034,0,0,0-3.18,0l-6.08,3.8Zm3,12.41V26.55l6.47-4.04a1.011,1.011,0,0,1,1.06,0L39,26.55v6.58a9.972,9.972,0,0,1-14,0Zm12.73,8.58a5.972,5.972,0,0,1-11.46,0A3,3,0,0,0,28,39V37.3a12.052,12.052,0,0,0,4,.7,11.8,11.8,0,0,0,4-.7V39A3,3,0,0,0,37.73,41.71ZM18,60H8.1l.2-2H18Zm27-8a1,1,0,0,0-1,1v7H20V53a1,1,0,0,0-2,0v3H8.51l.4-4.09A10.972,10.972,0,0,1,19.86,42h4.41a7.979,7.979,0,0,0,15.46,0h4.41a10.972,10.972,0,0,1,10.95,9.91L55.5,56H46V53A1,1,0,0,0,45,52Zm1,8V58h9.7l.2,2Z"/></g></svg>
